<svg width="306" height="121" viewBox="0 0 306 121" fill="none" xmlns="http://www.w3.org/2000/svg">
<path d="M0.625 0.1875H17.5312C21.3438 0.1875 24.25 0.479167 26.25 1.0625C28.9375 1.85417 31.2396 3.26042 33.1562 5.28125C35.0729 7.30208 36.5312 9.78125 37.5312 12.7188C38.5312 15.6354 39.0312 19.2396 39.0312 23.5312C39.0312 27.3021 38.5625 30.5521 37.625 33.2812C36.4792 36.6146 34.8438 39.3125 32.7188 41.375C31.1146 42.9375 28.9479 44.1562 26.2188 45.0312C24.1771 45.6771 21.4479 46 18.0312 46H0.625V0.1875ZM9.875 7.9375V38.2812H16.7812C19.3646 38.2812 21.2292 38.1354 22.375 37.8438C23.875 37.4688 25.1146 36.8333 26.0938 35.9375C27.0938 35.0417 27.9062 33.5729 28.5312 31.5312C29.1562 29.4688 29.4688 26.6667 29.4688 23.125C29.4688 19.5833 29.1562 16.8646 28.5312 14.9688C27.9062 13.0729 27.0312 11.5938 25.9062 10.5312C24.7812 9.46875 23.3542 8.75 21.625 8.375C20.3333 8.08333 17.8021 7.9375 14.0312 7.9375H9.875ZM50.8462 22.9375L42.8775 21.5C43.7733 18.2917 45.315 15.9167 47.5025 14.375C49.69 12.8333 52.94 12.0625 57.2525 12.0625C61.1692 12.0625 64.0858 12.5312 66.0025 13.4688C67.9192 14.3854 69.2629 15.5625 70.0337 17C70.8254 18.4167 71.2212 21.0312 71.2212 24.8438L71.1275 35.0938C71.1275 38.0104 71.2629 40.1667 71.5337 41.5625C71.8254 42.9375 72.3567 44.4167 73.1275 46H64.44C64.2108 45.4167 63.9296 44.5521 63.5962 43.4062C63.4504 42.8854 63.3462 42.5417 63.2837 42.375C61.7837 43.8333 60.1796 44.9271 58.4712 45.6562C56.7629 46.3854 54.94 46.75 53.0025 46.75C49.5858 46.75 46.8879 45.8229 44.9087 43.9688C42.9504 42.1146 41.9712 39.7708 41.9712 36.9375C41.9712 35.0625 42.4192 33.3958 43.315 31.9375C44.2108 30.4583 45.4608 29.3333 47.065 28.5625C48.69 27.7708 51.0233 27.0833 54.065 26.5C58.1692 25.7292 61.0129 25.0104 62.5962 24.3438V23.4688C62.5962 21.7812 62.1796 20.5833 61.3462 19.875C60.5129 19.1458 58.94 18.7812 56.6275 18.7812C55.065 18.7812 53.8462 19.0938 52.9712 19.7188C52.0962 20.3229 51.3879 21.3958 50.8462 22.9375ZM62.5962 30.0625C61.4712 30.4375 59.69 30.8854 57.2525 31.4062C54.815 31.9271 53.2212 32.4375 52.4712 32.9375C51.3254 33.75 50.7525 34.7812 50.7525 36.0312C50.7525 37.2604 51.2108 38.3229 52.1275 39.2188C53.0442 40.1146 54.2108 40.5625 55.6275 40.5625C57.2108 40.5625 58.7212 40.0417 60.1587 39C61.2212 38.2083 61.9192 37.2396 62.2525 36.0938C62.4817 35.3438 62.5962 33.9167 62.5962 31.8125V30.0625ZM74.255 36.5312L83.0675 35.1875C83.4425 36.8958 84.2029 38.1979 85.3487 39.0938C86.4946 39.9688 88.0987 40.4062 90.1612 40.4062C92.4321 40.4062 94.1404 39.9896 95.2862 39.1562C96.0571 38.5729 96.4425 37.7917 96.4425 36.8125C96.4425 36.1458 96.2342 35.5938 95.8175 35.1562C95.38 34.7396 94.4008 34.3542 92.88 34C85.7967 32.4375 81.3071 31.0104 79.4112 29.7188C76.7862 27.9271 75.4737 25.4375 75.4737 22.25C75.4737 19.375 76.6092 16.9583 78.88 15C81.1508 13.0417 84.6717 12.0625 89.4425 12.0625C93.9842 12.0625 97.3592 12.8021 99.5675 14.2812C101.776 15.7604 103.297 17.9479 104.13 20.8438L95.8487 22.375C95.4946 21.0833 94.8175 20.0938 93.8175 19.4062C92.8383 18.7188 91.4321 18.375 89.5987 18.375C87.2862 18.375 85.63 18.6979 84.63 19.3438C83.9633 19.8021 83.63 20.3958 83.63 21.125C83.63 21.75 83.9217 22.2812 84.505 22.7188C85.2967 23.3021 88.0258 24.125 92.6925 25.1875C97.38 26.25 100.651 27.5521 102.505 29.0938C104.338 30.6562 105.255 32.8333 105.255 35.625C105.255 38.6667 103.984 41.2812 101.442 43.4688C98.9008 45.6562 95.1404 46.75 90.1612 46.75C85.6404 46.75 82.0571 45.8333 79.4112 44C76.7862 42.1667 75.0675 39.6771 74.255 36.5312ZM119.164 0.1875V17.0312C121.997 13.7188 125.382 12.0625 129.32 12.0625C131.341 12.0625 133.164 12.4375 134.789 13.1875C136.414 13.9375 137.632 14.8958 138.445 16.0625C139.278 17.2292 139.841 18.5208 140.132 19.9375C140.445 21.3542 140.601 23.5521 140.601 26.5312V46H131.82V28.4688C131.82 24.9896 131.653 22.7812 131.32 21.8438C130.987 20.9062 130.393 20.1667 129.539 19.625C128.705 19.0625 127.653 18.7812 126.382 18.7812C124.924 18.7812 123.622 19.1354 122.476 19.8438C121.33 20.5521 120.487 21.625 119.945 23.0625C119.424 24.4792 119.164 26.5833 119.164 29.375V46H110.382V0.1875H119.164ZM146.604 46V0.1875H155.385V16.6875C158.093 13.6042 161.302 12.0625 165.01 12.0625C169.052 12.0625 172.395 13.5312 175.041 16.4688C177.687 19.3854 179.01 23.5833 179.01 29.0625C179.01 34.7292 177.656 39.0938 174.947 42.1562C172.26 45.2188 168.989 46.75 165.135 46.75C163.239 46.75 161.364 46.2812 159.51 45.3438C157.677 44.3854 156.093 42.9792 154.76 41.125V46H146.604ZM155.322 28.6875C155.322 32.125 155.864 34.6667 156.947 36.3125C158.468 38.6458 160.489 39.8125 163.01 39.8125C164.947 39.8125 166.593 38.9896 167.947 37.3438C169.322 35.6771 170.01 33.0625 170.01 29.5C170.01 25.7083 169.322 22.9792 167.947 21.3125C166.572 19.625 164.812 18.7812 162.666 18.7812C160.562 18.7812 158.812 19.6042 157.416 21.25C156.02 22.875 155.322 25.3542 155.322 28.6875ZM181.512 28.9375C181.512 26.0208 182.231 23.1979 183.669 20.4688C185.106 17.7396 187.137 15.6562 189.762 14.2188C192.408 12.7812 195.356 12.0625 198.606 12.0625C203.627 12.0625 207.742 13.6979 210.95 16.9688C214.158 20.2188 215.762 24.3333 215.762 29.3125C215.762 34.3333 214.137 38.5 210.887 41.8125C207.658 45.1042 203.585 46.75 198.669 46.75C195.627 46.75 192.721 46.0625 189.95 44.6875C187.2 43.3125 185.106 41.3021 183.669 38.6562C182.231 35.9896 181.512 32.75 181.512 28.9375ZM190.512 29.4062C190.512 32.6979 191.294 35.2188 192.856 36.9688C194.419 38.7188 196.346 39.5938 198.637 39.5938C200.929 39.5938 202.846 38.7188 204.387 36.9688C205.95 35.2188 206.731 32.6771 206.731 29.3438C206.731 26.0938 205.95 23.5938 204.387 21.8438C202.846 20.0938 200.929 19.2188 198.637 19.2188C196.346 19.2188 194.419 20.0938 192.856 21.8438C191.294 23.5938 190.512 26.1146 190.512 29.4062ZM226.671 22.9375L218.702 21.5C219.598 18.2917 221.14 15.9167 223.327 14.375C225.515 12.8333 228.765 12.0625 233.077 12.0625C236.994 12.0625 239.911 12.5312 241.827 13.4688C243.744 14.3854 245.088 15.5625 245.859 17C246.65 18.4167 247.046 21.0312 247.046 24.8438L246.952 35.0938C246.952 38.0104 247.088 40.1667 247.359 41.5625C247.65 42.9375 248.182 44.4167 248.952 46H240.265C240.036 45.4167 239.755 44.5521 239.421 43.4062C239.275 42.8854 239.171 42.5417 239.109 42.375C237.609 43.8333 236.005 44.9271 234.296 45.6562C232.588 46.3854 230.765 46.75 228.827 46.75C225.411 46.75 222.713 45.8229 220.734 43.9688C218.775 42.1146 217.796 39.7708 217.796 36.9375C217.796 35.0625 218.244 33.3958 219.14 31.9375C220.036 30.4583 221.286 29.3333 222.89 28.5625C224.515 27.7708 226.848 27.0833 229.89 26.5C233.994 25.7292 236.838 25.0104 238.421 24.3438V23.4688C238.421 21.7812 238.005 20.5833 237.171 19.875C236.338 19.1458 234.765 18.7812 232.452 18.7812C230.89 18.7812 229.671 19.0938 228.796 19.7188C227.921 20.3229 227.213 21.3958 226.671 22.9375ZM238.421 30.0625C237.296 30.4375 235.515 30.8854 233.077 31.4062C230.64 31.9271 229.046 32.4375 228.296 32.9375C227.15 33.75 226.577 34.7812 226.577 36.0312C226.577 37.2604 227.036 38.3229 227.952 39.2188C228.869 40.1146 230.036 40.5625 231.452 40.5625C233.036 40.5625 234.546 40.0417 235.984 39C237.046 38.2083 237.744 37.2396 238.077 36.0938C238.307 35.3438 238.421 33.9167 238.421 31.8125V30.0625ZM261.58 46H252.799V12.8125H260.955V17.5312C262.351 15.3021 263.601 13.8333 264.705 13.125C265.83 12.4167 267.101 12.0625 268.518 12.0625C270.518 12.0625 272.445 12.6146 274.299 13.7188L271.58 21.375C270.101 20.4167 268.726 19.9375 267.455 19.9375C266.226 19.9375 265.184 20.2812 264.33 20.9688C263.476 21.6354 262.799 22.8542 262.299 24.625C261.82 26.3958 261.58 30.1042 261.58 35.75V46ZM305.989 46H297.832V41.125C296.478 43.0208 294.874 44.4375 293.02 45.375C291.187 46.2917 289.332 46.75 287.457 46.75C283.645 46.75 280.374 45.2188 277.645 42.1562C274.937 39.0729 273.582 34.7812 273.582 29.2812C273.582 23.6562 274.905 19.3854 277.551 16.4688C280.197 13.5312 283.541 12.0625 287.582 12.0625C291.291 12.0625 294.499 13.6042 297.207 16.6875V0.1875H305.989V46ZM282.551 28.6875C282.551 32.2292 283.041 34.7917 284.02 36.375C285.437 38.6667 287.416 39.8125 289.957 39.8125C291.978 39.8125 293.697 38.9583 295.114 37.25C296.53 35.5208 297.239 32.9479 297.239 29.5312C297.239 25.7188 296.551 22.9792 295.176 21.3125C293.801 19.625 292.041 18.7812 289.895 18.7812C287.812 18.7812 286.062 19.6146 284.645 21.2812C283.249 22.9271 282.551 25.3958 282.551 28.6875ZM0.625 74.1875H17.5312C21.3438 74.1875 24.25 74.4792 26.25 75.0625C28.9375 75.8542 31.2396 77.2604 33.1562 79.2812C35.0729 81.3021 36.5312 83.7812 37.5312 86.7188C38.5312 89.6354 39.0312 93.2396 39.0312 97.5312C39.0312 101.302 38.5625 104.552 37.625 107.281C36.4792 110.615 34.8438 113.312 32.7188 115.375C31.1146 116.938 28.9479 118.156 26.2188 119.031C24.1771 119.677 21.4479 120 18.0312 120H0.625V74.1875ZM9.875 81.9375V112.281H16.7812C19.3646 112.281 21.2292 112.135 22.375 111.844C23.875 111.469 25.1146 110.833 26.0938 109.938C27.0938 109.042 27.9062 107.573 28.5312 105.531C29.1562 103.469 29.4688 100.667 29.4688 97.125C29.4688 93.5833 29.1562 90.8646 28.5312 88.9688C27.9062 87.0729 27.0312 85.5938 25.9062 84.5312C24.7812 83.4688 23.3542 82.75 21.625 82.375C20.3333 82.0833 17.8021 81.9375 14.0312 81.9375H9.875ZM42.2525 102.938C42.2525 100.021 42.9712 97.1979 44.4087 94.4688C45.8462 91.7396 47.8775 89.6562 50.5025 88.2188C53.1483 86.7812 56.0962 86.0625 59.3462 86.0625C64.3671 86.0625 68.4817 87.6979 71.69 90.9688C74.8983 94.2188 76.5025 98.3333 76.5025 103.312C76.5025 108.333 74.8775 112.5 71.6275 115.812C68.3983 119.104 64.3254 120.75 59.4087 120.75C56.3671 120.75 53.4608 120.062 50.69 118.688C47.94 117.312 45.8462 115.302 44.4087 112.656C42.9712 109.99 42.2525 106.75 42.2525 102.938ZM51.2525 103.406C51.2525 106.698 52.0337 109.219 53.5962 110.969C55.1587 112.719 57.0858 113.594 59.3775 113.594C61.6692 113.594 63.5858 112.719 65.1275 110.969C66.69 109.219 67.4712 106.677 67.4712 103.344C67.4712 100.094 66.69 97.5938 65.1275 95.8438C63.5858 94.0938 61.6692 93.2188 59.3775 93.2188C57.0858 93.2188 55.1587 94.0938 53.5962 95.8438C52.0337 97.5938 51.2525 100.115 51.2525 103.406ZM80.5362 120V74.1875H89.3175V98.5L99.5987 86.8125H110.411L99.0675 98.9375L111.224 120H101.755L93.4112 105.094L89.3175 109.375V120H80.5362ZM129.132 86.8125V93.8125H123.132V107.188C123.132 109.896 123.185 111.479 123.289 111.938C123.414 112.375 123.674 112.74 124.07 113.031C124.487 113.323 124.987 113.469 125.57 113.469C126.382 113.469 127.56 113.188 129.101 112.625L129.851 119.438C127.81 120.312 125.497 120.75 122.914 120.75C121.33 120.75 119.903 120.49 118.632 119.969C117.362 119.427 116.424 118.74 115.82 117.906C115.237 117.052 114.83 115.906 114.601 114.469C114.414 113.448 114.32 111.385 114.32 108.281V93.8125H110.289V86.8125H114.32V80.2188L123.132 75.0938V86.8125H129.132ZM151.885 109.438L160.635 110.906C159.51 114.115 157.729 116.562 155.291 118.25C152.875 119.917 149.843 120.75 146.197 120.75C140.427 120.75 136.156 118.865 133.385 115.094C131.197 112.073 130.104 108.26 130.104 103.656C130.104 98.1562 131.541 93.8542 134.416 90.75C137.291 87.625 140.927 86.0625 145.322 86.0625C150.26 86.0625 154.156 87.6979 157.01 90.9688C159.864 94.2188 161.229 99.2083 161.104 105.938H139.104C139.166 108.542 139.875 110.573 141.229 112.031C142.583 113.469 144.27 114.188 146.291 114.188C147.666 114.188 148.822 113.812 149.76 113.062C150.697 112.312 151.406 111.104 151.885 109.438ZM152.385 100.562C152.322 98.0208 151.666 96.0938 150.416 94.7812C149.166 93.4479 147.645 92.7812 145.854 92.7812C143.937 92.7812 142.354 93.4792 141.104 94.875C139.854 96.2708 139.239 98.1667 139.26 100.562H152.385ZM174.137 120H165.356V86.8125H173.512V91.5312C174.908 89.3021 176.158 87.8333 177.262 87.125C178.387 86.4167 179.658 86.0625 181.075 86.0625C183.075 86.0625 185.002 86.6146 186.856 87.7188L184.137 95.375C182.658 94.4167 181.283 93.9375 180.012 93.9375C178.783 93.9375 177.742 94.2812 176.887 94.9688C176.033 95.6354 175.356 96.8542 174.856 98.625C174.377 100.396 174.137 104.104 174.137 109.75V120Z" fill="#6C7383"/>
</svg>
